<?xml version="1.0" standalone="no"?>
<!DOCTYPE svg PUBLIC "-//W3C//DTD SVG 20010904//EN"
 "http://www.w3.org/TR/2001/REC-SVG-20010904/DTD/svg10.dtd">
<svg version="1.0" xmlns="http://www.w3.org/2000/svg"
 width="1071.000000pt" height="1044.000000pt" viewBox="0 0 1071.000000 1044.000000"
 preserveAspectRatio="xMidYMid meet">

<g transform="translate(0.000000,1044.000000) scale(0.100000,-0.100000)"
fill="#000000" stroke="none">
<path d="M3168 8493 l-3 -188 -282 -3 -283 -2 0 -160 0 -160 285 0 285 0 2
-572 3 -573 162 -3 163 -2 2 572 3 573 283 3 282 2 0 160 0 160 -282 2 -283 3
-3 188 -2 187 -165 0 -165 0 -2 -187z"/>
<path d="M4990 7630 c-8 -5 -36 -10 -61 -10 -26 0 -82 -9 -125 -21 -44 -11
-91 -23 -107 -26 -15 -3 -30 -9 -33 -14 -3 -5 -14 -9 -24 -9 -10 0 -40 -11
-66 -25 -26 -14 -53 -25 -60 -25 -14 0 -78 -33 -104 -54 -8 -7 -37 -23 -65
-36 -27 -14 -63 -34 -80 -45 -16 -11 -37 -25 -46 -30 -63 -39 -128 -86 -148
-109 -14 -14 -30 -26 -36 -26 -14 0 -366 -348 -403 -400 -15 -19 -42 -53 -62
-75 -19 -22 -42 -50 -50 -63 -14 -22 -17 -23 -65 -11 -27 7 -77 21 -110 31
-74 23 -237 57 -330 69 -38 4 -104 13 -145 19 -99 15 -407 15 -495 0 -38 -7
-92 -16 -120 -20 -81 -14 -138 -27 -185 -45 -25 -9 -57 -19 -73 -22 -15 -3
-30 -9 -33 -14 -3 -5 -12 -9 -20 -9 -18 0 -159 -67 -199 -94 -16 -12 -45 -29
-64 -40 -86 -45 -332 -271 -350 -320 -2 -6 -19 -27 -38 -46 -18 -19 -33 -39
-33 -44 0 -4 -11 -21 -25 -38 -14 -16 -25 -36 -25 -44 0 -8 -4 -14 -10 -14 -5
0 -10 -8 -10 -19 0 -10 -7 -24 -16 -32 -9 -7 -25 -33 -36 -58 -11 -25 -30 -68
-43 -96 -55 -123 -115 -339 -115 -414 0 -26 -5 -52 -10 -57 -13 -13 -15 -348
-3 -367 4 -7 11 -48 15 -92 4 -44 12 -102 17 -130 25 -131 32 -161 41 -180 4
-11 11 -35 14 -54 3 -19 15 -52 25 -75 10 -23 24 -61 31 -86 16 -57 38 -107
50 -115 6 -3 10 -15 10 -27 0 -24 69 -158 81 -158 5 0 9 -7 9 -15 0 -9 10 -32
23 -53 12 -21 27 -47 33 -57 7 -13 27 -22 55 -27 67 -10 269 -9 269 1 0 10
-69 131 -80 141 -7 6 -90 177 -90 185 0 3 -9 27 -21 53 -39 87 -78 202 -98
285 -6 26 -16 66 -21 90 -24 98 -32 183 -37 377 -4 165 -1 221 12 285 21 104
51 207 81 273 13 29 24 57 24 62 0 11 45 93 71 132 11 14 19 29 19 32 0 31
195 246 274 303 28 21 53 40 56 43 15 16 194 110 210 110 6 0 29 9 53 19 23
10 69 24 102 31 33 7 80 17 105 22 68 15 425 22 490 9 30 -6 100 -18 155 -27
91 -14 331 -74 380 -94 11 -5 34 -13 50 -18 59 -20 201 -73 230 -86 68 -31 66
-32 125 57 202 307 449 564 715 747 142 98 332 178 505 214 82 17 294 22 332
7 13 -5 57 -17 98 -26 41 -10 99 -29 129 -42 29 -12 58 -23 63 -23 5 0 14 -5
21 -10 24 -21 130 -80 143 -80 7 0 17 -6 21 -13 4 -8 29 -29 55 -48 137 -100
348 -301 348 -331 0 -14 -64 -48 -92 -48 -28 0 -186 -53 -240 -81 -10 -5 -22
-9 -28 -9 -6 0 -33 -11 -62 -25 -28 -14 -55 -25 -60 -25 -18 0 -234 -108 -247
-124 -7 -9 -19 -16 -25 -16 -6 0 -46 -24 -90 -53 -43 -28 -88 -57 -99 -64 -20
-11 -40 -28 -151 -123 -63 -53 -129 -121 -161 -163 -15 -20 -43 -54 -61 -74
-19 -20 -34 -42 -34 -49 0 -7 -4 -14 -8 -16 -22 -8 -132 -206 -132 -237 0 -11
-4 -21 -8 -21 -4 0 -16 -24 -26 -52 -10 -29 -22 -62 -26 -73 -5 -11 -11 -33
-14 -50 -2 -16 -14 -70 -25 -120 -17 -73 -21 -124 -20 -275 0 -102 4 -205 10
-230 5 -25 13 -69 16 -98 3 -29 9 -55 14 -58 5 -3 9 -23 9 -44 0 -21 5 -42 10
-45 6 -3 10 -16 10 -29 0 -21 22 -97 40 -141 5 -11 16 -42 25 -70 10 -27 25
-68 35 -90 40 -90 50 -113 50 -120 0 -10 139 -285 159 -315 9 -14 26 -42 36
-63 11 -21 28 -47 38 -57 9 -11 17 -22 17 -26 0 -3 10 -20 23 -37 12 -17 27
-39 32 -49 31 -52 126 -186 144 -202 12 -11 21 -24 21 -30 0 -6 16 -28 35 -50
19 -21 35 -41 35 -45 0 -3 20 -28 45 -54 25 -27 45 -52 45 -56 0 -4 16 -25 36
-47 19 -21 46 -55 59 -74 13 -19 50 -62 84 -95 33 -33 61 -65 61 -70 0 -6 52
-64 115 -129 63 -66 115 -122 115 -126 0 -10 339 -350 390 -392 25 -20 83 -73
130 -117 47 -45 88 -81 92 -81 3 0 39 -31 80 -70 40 -38 78 -70 84 -70 6 0 19
-10 30 -21 10 -12 35 -32 54 -44 19 -13 49 -35 65 -50 17 -14 46 -37 65 -50
19 -13 48 -35 64 -49 16 -14 33 -26 38 -26 5 0 19 -9 31 -20 38 -36 61 -35
154 9 192 91 448 222 563 288 30 17 73 41 95 53 22 12 76 45 120 72 44 27 89
55 100 61 91 54 376 243 509 337 101 72 272 204 356 275 25 22 58 49 72 60 95
75 418 386 503 485 329 381 530 716 610 1012 83 307 88 686 14 973 -37 145
-111 319 -165 392 -13 17 -24 35 -24 38 0 26 -156 194 -250 269 -92 74 -202
137 -300 173 -112 41 -126 45 -170 54 -217 45 -478 39 -675 -16 -27 -8 -70
-19 -95 -25 -25 -7 -53 -16 -62 -21 -10 -5 -23 -9 -29 -9 -7 0 -37 -12 -68
-26 -31 -14 -65 -29 -76 -33 -82 -29 -374 -195 -375 -213 0 -4 54 20 119 53
215 106 383 160 621 201 99 17 387 17 465 0 86 -19 178 -44 190 -52 6 -4 29
-14 53 -23 23 -10 84 -42 134 -72 50 -30 93 -55 96 -55 10 0 202 -198 202
-208 0 -6 10 -23 23 -39 20 -26 50 -75 68 -113 3 -8 16 -35 28 -58 11 -24 21
-48 21 -54 0 -5 6 -24 14 -41 24 -55 36 -109 57 -272 12 -91 4 -462 -10 -479
-5 -6 -11 -33 -15 -61 -10 -94 -18 -140 -25 -145 -4 -3 -15 -29 -25 -59 -12
-38 -14 -57 -7 -64 14 -14 14 -64 1 -72 -5 -3 -10 -21 -10 -39 0 -18 -8 -48
-17 -66 -21 -44 -121 -146 -150 -155 -21 -6 -23 -12 -23 -80 0 -41 -4 -77 -10
-80 -5 -3 -10 -16 -10 -29 0 -37 -29 -85 -89 -145 -64 -64 -106 -87 -173 -96
-51 -7 -127 -55 -135 -85 -3 -11 -11 -20 -18 -22 -8 -2 -62 -48 -121 -103 -59
-55 -116 -106 -128 -114 -12 -8 -39 -31 -61 -51 -62 -57 -279 -224 -344 -265
-8 -5 -33 -25 -55 -43 -22 -17 -45 -32 -51 -32 -7 0 -20 -9 -31 -21 -10 -12
-36 -30 -56 -40 -21 -11 -38 -24 -38 -29 0 -6 -4 -10 -10 -10 -9 0 -65 -33
-175 -105 -47 -31 -177 -108 -275 -162 -25 -14 -49 -29 -55 -33 -43 -33 -658
-340 -680 -340 -9 0 -75 52 -141 109 -22 20 -53 47 -70 60 -144 119 -494 459
-623 606 -24 28 -72 79 -105 115 -34 36 -78 86 -99 112 -21 26 -43 53 -50 60
-20 21 -160 187 -187 223 -14 18 -70 91 -124 161 -108 141 -288 409 -329 491
l-27 52 30 6 c16 3 38 2 49 -4 11 -6 35 -11 53 -11 33 0 68 -27 68 -51 0 -18
102 -119 121 -119 11 0 19 -4 19 -10 0 -16 51 -37 119 -51 157 -30 336 59 444
221 20 30 41 60 46 66 5 6 36 12 70 13 34 1 87 11 119 21 31 11 60 20 64 20 4
0 10 -20 14 -45 3 -25 10 -48 15 -51 5 -3 9 -16 9 -29 0 -28 36 -96 56 -108 8
-4 14 -14 14 -21 0 -13 61 -76 73 -76 5 0 20 -11 35 -25 15 -14 32 -25 39 -25
13 0 18 -15 27 -80 17 -122 32 -156 95 -223 113 -121 277 -143 453 -60 l77 36
68 -34 c60 -30 77 -34 148 -34 104 0 171 31 247 114 68 74 98 149 106 258 l5
83 41 24 c23 13 58 42 78 63 37 39 88 129 88 156 0 30 15 25 50 -16 63 -73
120 -123 158 -138 20 -8 22 -15 22 -73 0 -67 18 -123 54 -167 11 -14 28 -36
36 -48 8 -11 18 -21 22 -21 5 0 25 -11 46 -24 20 -14 65 -30 100 -37 76 -16
150 -3 246 41 l63 29 73 -30 c66 -28 81 -31 149 -27 87 6 143 31 204 91 53 53
98 151 104 230 7 95 9 101 52 125 52 29 98 84 127 149 31 69 33 178 5 240 -21
45 -99 153 -111 153 -4 0 -24 13 -44 29 -21 16 -42 31 -48 33 -6 2 -15 36 -19
75 -14 130 -71 216 -176 268 -51 25 -63 26 -157 23 -91 -3 -109 -6 -168 -35
-36 -18 -70 -33 -76 -33 -6 0 -27 10 -47 21 -20 12 -64 28 -98 35 -67 14 -103
9 -183 -27 -71 -31 -174 -151 -174 -202 0 -13 -5 -28 -11 -34 -6 -6 -13 -45
-16 -87 -4 -51 -10 -76 -18 -76 -26 0 -132 -115 -160 -175 -25 -51 -30 -57
-39 -41 -31 52 -102 125 -154 160 l-59 39 -7 69 c-13 141 -70 225 -200 295
-34 19 -57 22 -141 22 -107 1 -181 -15 -227 -49 -37 -27 -60 -25 -132 10 -93
45 -222 42 -301 -8 -47 -29 -122 -104 -135 -135 -6 -12 -14 -29 -19 -37 -19
-32 -30 -67 -36 -110 -3 -25 -8 -65 -11 -90 -6 -41 -17 -59 -36 -60 -5 0 -8
35 -8 79 0 86 -20 164 -65 250 l-27 52 33 72 c31 67 33 79 33 177 1 96 -2 110
-28 162 -41 82 -120 155 -216 200 -45 21 -171 48 -230 49 -44 0 -46 2 -84 60
-68 106 -196 179 -315 179 -57 0 -191 -36 -191 -51 0 -5 -7 -9 -15 -9 -19 0
-175 -148 -175 -167 0 -7 -11 -26 -25 -42 -23 -25 -35 -29 -99 -34 -40 -3 -82
-10 -92 -15 -11 -5 -40 -20 -66 -32 -27 -13 -48 -27 -48 -31 0 -4 -12 -14 -27
-21 -15 -7 -32 -22 -38 -33 -5 -12 -19 -31 -31 -43 -12 -12 -26 -42 -33 -65
-7 -23 -17 -57 -23 -76 -12 -41 -12 -132 1 -174 5 -18 15 -52 22 -77 7 -25 23
-62 36 -82 23 -38 31 -92 14 -103 -16 -9 -41 -66 -41 -91 0 -13 -4 -26 -10
-29 -5 -3 -10 -42 -10 -85 0 -43 5 -82 10 -85 6 -3 10 -16 10 -27 0 -12 11
-36 25 -54 14 -18 25 -37 25 -43 0 -22 109 -118 164 -144 31 -15 56 -29 56
-31 0 -9 -84 16 -123 36 -118 60 -182 132 -216 242 -33 109 -27 178 27 299 24
55 25 60 9 86 -16 27 -36 80 -62 161 -28 86 -14 231 30 317 17 34 121 143 136
143 5 0 9 7 9 16 0 26 73 174 121 244 68 101 210 235 339 322 105 70 309 179
370 199 14 4 61 22 105 39 210 81 475 142 800 185 66 9 143 20 172 26 l51 10
-49 72 c-27 40 -67 97 -89 127 -23 30 -48 66 -58 80 -9 14 -41 58 -72 99 -30
40 -64 86 -75 101 -65 89 -156 192 -284 321 -129 128 -278 259 -296 259 -4 0
-25 15 -48 33 -23 19 -49 37 -57 41 -24 11 -57 31 -72 43 -25 21 -232 123
-250 123 -9 0 -19 4 -22 9 -3 4 -27 14 -53 20 -27 7 -59 17 -72 22 -27 11 -86
25 -171 40 -81 15 -362 22 -380 9z m906 -2328 c5 -4 36 -16 69 -27 33 -10 73
-29 88 -42 16 -13 33 -23 38 -23 5 0 41 -32 80 -71 39 -39 73 -68 76 -66 4 5
-13 113 -23 150 -4 12 0 17 13 17 19 0 153 -127 153 -145 0 -6 8 -20 18 -31
22 -23 52 -82 52 -101 0 -7 4 -21 9 -31 22 -41 33 -133 27 -218 -8 -118 -16
-174 -26 -174 -4 0 -10 -11 -12 -25 -3 -14 -3 -25 -1 -25 9 0 89 59 107 79 11
11 23 21 28 21 12 0 10 -68 -3 -109 -26 -79 -76 -186 -95 -202 -8 -6 -14 -16
-14 -22 0 -12 -86 -97 -98 -97 -4 0 -21 -12 -37 -28 -47 -42 -80 -56 -263
-111 l-24 -7 24 -10 c35 -17 70 -30 103 -40 17 -5 30 -14 30 -19 0 -6 -30 -22
-65 -37 -58 -24 -78 -27 -190 -27 -96 0 -138 4 -180 18 -102 34 -179 80 -255
153 l-75 71 0 -51 c0 -28 5 -54 10 -57 12 -8 13 -65 1 -65 -13 0 -92 69 -133
115 -76 87 -138 263 -138 393 0 51 24 171 45 225 12 30 -14 19 -61 -25 -51
-48 -73 -63 -81 -54 -15 14 22 149 63 233 78 159 220 271 402 319 l83 21 -43
20 c-24 11 -62 25 -85 33 -46 14 -54 24 -25 33 9 3 42 15 72 26 44 16 82 20
191 20 74 1 139 -3 145 -7z m3196 -596 c62 -16 108 -36 126 -54 8 -7 26 -19
40 -26 79 -42 192 -220 192 -303 0 -24 4 -43 8 -43 9 0 35 55 47 98 4 12 10
22 15 22 15 0 50 -91 50 -131 0 -21 5 -41 10 -44 6 -3 10 -21 10 -40 0 -19 -4
-37 -10 -40 -5 -3 -10 -24 -10 -45 0 -21 -4 -41 -9 -45 -5 -3 -12 -19 -16 -35
-12 -55 -54 -124 -112 -184 l-57 -59 67 7 c48 5 67 3 67 -5 0 -22 -115 -124
-170 -150 -94 -45 -109 -49 -198 -55 -81 -6 -155 4 -224 31 -21 8 -24 -8 -5
-27 7 -7 26 -31 42 -52 l30 -39 -45 7 c-94 14 -174 51 -256 116 -66 52 -136
174 -154 268 l-13 63 -18 -28 c-11 -15 -19 -35 -19 -44 0 -9 -6 -29 -14 -44
-14 -26 -15 -26 -25 -7 -42 79 -52 228 -22 337 26 93 60 152 128 220 31 30 54
57 52 60 -2 2 -34 -2 -72 -9 -37 -7 -67 -10 -67 -7 0 10 32 54 60 81 40 40
100 77 170 106 57 24 79 28 175 28 85 1 121 -3 158 -18 27 -10 51 -16 53 -13
3 3 -10 22 -28 44 -63 72 -64 73 -35 73 14 0 50 -6 79 -14z m-1582 -76 c45 -9
124 -46 173 -81 48 -34 117 -97 117 -106 0 -3 10 -20 23 -37 40 -55 77 -156
77 -213 0 -18 4 -33 9 -33 8 0 41 69 56 118 6 22 8 23 26 6 10 -9 19 -27 19
-38 1 -12 7 -32 15 -46 20 -35 20 -206 0 -253 -8 -20 -15 -48 -15 -62 0 -14
-4 -25 -8 -25 -5 0 -15 -18 -22 -41 -9 -26 -39 -67 -87 -116 -40 -41 -73 -77
-73 -80 0 -5 13 -4 108 12 29 6 42 4 42 -4 0 -17 -89 -110 -121 -127 -15 -7
-33 -20 -41 -27 -7 -7 -36 -22 -63 -32 -28 -10 -56 -23 -64 -29 -8 -6 -68 -10
-145 -10 -108 1 -140 4 -183 21 -39 16 -50 17 -46 7 3 -8 9 -14 14 -14 5 0 9
-7 9 -15 0 -8 14 -29 30 -47 17 -17 30 -35 30 -39 0 -30 -174 23 -255 77 -59
39 -130 111 -167 170 -28 43 -78 184 -78 218 0 18 -2 17 -15 -8 -8 -15 -15
-35 -15 -42 0 -8 -4 -14 -9 -14 -5 0 -11 -14 -15 -31 -8 -42 -24 -33 -48 26
-16 40 -20 75 -21 170 0 109 2 126 28 190 34 86 74 145 139 208 l49 47 -39 0
c-21 0 -56 -4 -76 -9 -43 -10 -43 -10 -24 27 35 67 161 152 280 190 76 24 244
21 315 -6 30 -12 56 -20 58 -18 4 4 -69 100 -79 104 -27 12 13 34 42 25 8 -3
31 -9 50 -13z"/>
<path d="M5776 5133 c-46 -8 -138 -61 -173 -100 -37 -40 -91 -146 -103 -199
-4 -19 -6 -34 -3 -34 2 0 18 14 36 31 42 40 149 94 215 108 141 30 317 -7 400
-84 15 -14 28 -21 30 -16 6 17 -59 137 -99 184 -71 83 -196 128 -303 110z"/>
<path d="M5885 4829 c5 -8 18 -27 30 -44 11 -16 27 -48 35 -70 16 -47 17 -182
1 -198 -6 -6 -11 -17 -11 -25 0 -8 -9 -27 -21 -43 -27 -39 -8 -38 54 1 93 58
130 162 92 253 -16 39 -94 112 -128 120 -12 2 -31 8 -41 12 -15 7 -17 5 -11
-6z"/>
<path d="M6205 4775 c5 -11 11 -62 13 -114 4 -93 -3 -136 -34 -208 -8 -17 -14
-34 -14 -37 0 -3 -21 -33 -46 -66 -47 -62 -141 -140 -169 -140 -8 0 -15 -4
-15 -10 0 -5 -10 -10 -22 -10 -19 -1 -16 -4 12 -16 24 -10 54 -14 95 -11 124
10 194 38 263 109 129 134 102 354 -63 498 -24 22 -27 22 -20 5z"/>
<path d="M5775 4760 c-3 -5 -14 -10 -23 -10 -24 0 -112 -98 -112 -126 0 -12
-4 -26 -10 -29 -18 -11 -5 -92 20 -115 3 -3 13 -18 22 -35 15 -26 122 -95 149
-95 5 0 -5 19 -21 42 -77 106 -78 223 -2 371 6 11 -16 8 -23 -3z"/>
<path d="M5453 4733 c-4 -10 -17 -27 -30 -39 -13 -12 -23 -26 -23 -32 0 -6
-10 -28 -21 -49 -12 -21 -28 -65 -36 -98 -12 -53 -12 -68 2 -127 9 -36 25 -74
36 -84 10 -9 19 -22 19 -29 0 -15 47 -58 85 -77 101 -52 169 -64 259 -48 87
16 110 26 81 35 -11 4 -39 16 -62 26 -24 10 -45 19 -48 19 -3 0 -27 16 -54 35
-55 40 -123 125 -152 191 -31 70 -51 180 -43 241 6 52 0 70 -13 36z"/>
<path d="M8780 4502 c-49 -23 -130 -107 -130 -135 0 -13 -6 -29 -12 -36 -16
-15 -16 -168 -1 -196 11 -19 12 -18 22 10 35 96 124 198 203 233 64 29 144 45
194 39 55 -6 54 7 -2 44 -89 59 -200 76 -274 41z"/>
<path d="M9175 4369 c11 -13 22 -26 25 -29 8 -7 55 -106 70 -147 12 -31 9
-124 -5 -208 -4 -22 -24 -66 -45 -97 -21 -32 -36 -58 -34 -58 3 0 32 14 66 31
109 55 169 135 176 239 9 124 -102 254 -243 286 l-30 7 20 -24z"/>
<path d="M8854 4238 c-42 -45 -71 -94 -62 -103 3 -4 22 5 43 19 47 32 90 40
177 32 48 -4 75 -12 90 -26 30 -28 33 -19 8 29 -30 59 -85 91 -158 91 -55 0
-60 -2 -98 -42z"/>
<path d="M9140 4045 c-77 -49 -198 -49 -272 -1 -34 22 -34 19 -7 -31 39 -70
120 -113 187 -97 44 11 93 54 114 101 11 25 18 46 16 48 -1 1 -19 -7 -38 -20z"/>
<path d="M8650 4033 c0 -12 -5 -25 -11 -29 -11 -6 -9 -35 9 -124 11 -56 26
-86 66 -128 48 -52 90 -67 181 -67 72 0 86 3 135 32 30 17 67 44 82 60 l27 28
-112 0 c-104 0 -116 2 -170 30 -70 35 -149 110 -182 173 -18 35 -24 41 -25 25z"/>
<path d="M7202 4421 c-18 -5 -41 -16 -51 -25 -10 -9 -22 -16 -28 -16 -11 0
-53 -42 -53 -54 0 -4 -9 -16 -19 -27 -11 -12 -26 -43 -35 -69 -18 -54 -22
-175 -6 -185 6 -3 10 -17 10 -31 0 -35 17 -30 25 7 8 37 57 123 88 157 79 86
238 150 346 140 28 -3 51 -3 51 -1 0 12 -52 47 -108 74 -68 32 -161 45 -220
30z"/>
<path d="M7590 4279 c0 -5 5 -9 10 -9 6 0 10 -6 10 -13 0 -8 11 -24 25 -37 14
-13 25 -27 25 -32 0 -4 10 -30 23 -56 19 -40 22 -63 22 -162 0 -123 -13 -167
-73 -247 -20 -27 -21 -33 -8 -33 28 0 99 39 149 81 72 62 102 126 102 219 0
64 -5 83 -27 121 -32 55 -91 110 -150 140 -50 26 -108 41 -108 28z"/>
<path d="M7325 4169 c-17 -4 -46 -23 -66 -41 -56 -51 -94 -150 -42 -107 42 35
77 44 167 44 75 -1 98 -5 129 -23 44 -26 49 -13 14 39 -46 69 -135 108 -202
88z"/>
<path d="M7027 3923 c-14 -13 -7 -177 8 -207 8 -15 15 -35 15 -42 0 -8 5 -14
10 -14 6 0 10 -9 10 -19 0 -23 71 -87 119 -107 73 -30 225 -9 282 39 10 9 23
17 27 17 5 0 24 16 43 36 l34 36 -30 -6 c-88 -18 -219 -6 -285 26 -88 44 -164
120 -205 204 -12 24 -24 41 -28 37z"/>
<path d="M7240 3917 c0 -7 9 -23 20 -35 11 -12 20 -25 20 -30 0 -14 42 -47 84
-67 52 -24 119 -14 166 24 37 29 87 108 76 119 -4 3 -30 -7 -59 -23 -46 -25
-62 -29 -132 -29 -68 1 -87 5 -127 28 -34 18 -48 23 -48 13z"/>
<path d="M4465 5610 c-11 -5 -34 -9 -51 -9 -35 -1 -248 -47 -279 -60 -11 -5
-45 -14 -75 -21 -52 -11 -120 -32 -165 -50 -11 -5 -29 -11 -40 -13 -11 -3 -69
-23 -130 -45 -60 -22 -132 -48 -160 -57 -27 -10 -59 -21 -70 -25 -50 -19 -156
-53 -217 -69 -76 -21 -69 -25 -139 72 -18 26 -53 73 -76 103 -24 31 -43 60
-43 65 0 24 -18 5 -23 -23 -3 -18 -12 -73 -21 -123 -9 -49 -19 -108 -22 -130
-10 -79 -13 -83 -51 -96 -42 -14 -81 -34 -144 -76 -23 -15 -51 -33 -62 -40
-11 -6 -35 -25 -53 -42 -18 -17 -37 -31 -42 -31 -5 0 -20 -10 -34 -23 -13 -12
-47 -41 -74 -62 -97 -78 -329 -326 -343 -367 -2 -6 -19 -27 -37 -46 -19 -20
-34 -40 -34 -46 0 -5 -7 -17 -15 -26 -25 -28 -122 -226 -128 -261 -3 -19 -8
-44 -12 -57 -6 -19 -5 -21 11 -15 11 4 39 19 64 35 25 15 54 32 65 37 11 6 90
53 175 105 147 91 417 232 525 274 28 11 111 47 185 80 137 60 310 121 410
143 30 7 93 22 140 34 47 12 117 27 155 33 39 6 99 16 135 21 36 6 190 14 342
17 l277 7 6 46 c8 64 23 165 59 421 49 338 49 345 -9 320z"/>
<path d="M3587 4586 c-20 -30 -99 -112 -113 -117 -6 -2 -43 -33 -83 -68 -39
-35 -83 -72 -98 -81 -16 -10 -37 -27 -47 -39 -11 -11 -23 -21 -28 -21 -5 0
-33 -16 -63 -35 -62 -39 -275 -150 -350 -181 -204 -86 -464 -149 -765 -185
-138 -17 -580 -23 -725 -10 -282 25 -342 32 -390 41 -27 5 -108 19 -180 31
-71 11 -148 25 -170 29 -78 16 -180 39 -204 46 -38 11 -20 -7 61 -61 40 -28
75 -52 78 -55 7 -8 149 -92 190 -113 19 -10 53 -29 75 -42 22 -14 51 -30 65
-35 25 -10 56 -25 159 -74 30 -14 60 -26 66 -26 6 0 30 -9 52 -20 86 -41 300
-103 451 -129 34 -6 90 -17 125 -23 83 -17 641 -18 712 -1 28 6 84 17 125 23
87 14 168 33 260 60 36 11 96 29 133 40 38 11 83 26 100 34 18 8 59 24 92 36
122 44 467 207 485 229 3 3 21 13 40 22 90 42 398 248 525 350 99 80 295 293
295 320 0 5 -24 9 -54 9 -30 0 -76 4 -103 10 -26 5 -138 16 -248 25 -110 8
-245 20 -300 25 -141 14 -150 13 -168 -14z"/>
<path d="M1830 3334 c0 -17 239 -214 259 -214 4 0 16 -9 26 -21 17 -18 132
-99 141 -99 2 0 27 -16 54 -35 27 -19 52 -35 55 -35 2 0 29 -15 58 -34 100
-64 383 -212 517 -270 36 -15 84 -36 107 -47 24 -10 45 -19 49 -19 3 0 30 -11
60 -25 30 -14 60 -25 67 -25 7 0 31 -8 53 -19 21 -10 64 -26 94 -36 30 -10 64
-21 75 -26 48 -18 234 -77 315 -99 25 -6 53 -16 62 -21 10 -5 24 -9 33 -9 8 0
54 -11 101 -25 47 -14 99 -25 115 -25 15 0 30 -4 33 -9 3 -5 23 -11 43 -14 21
-3 79 -15 128 -26 113 -27 157 -36 270 -55 50 -8 121 -20 158 -27 37 -6 70 -9
73 -6 5 5 -56 21 -171 47 -22 5 -65 17 -95 25 -30 9 -86 24 -125 34 -65 17
-536 171 -580 190 -11 5 -58 23 -105 41 -47 18 -103 40 -125 50 -22 9 -105 46
-185 80 -202 88 -522 253 -650 335 -103 65 -336 220 -340 225 -3 3 -23 19 -45
36 -22 16 -75 57 -118 92 l-78 62 -112 0 c-61 0 -136 3 -164 6 -29 4 -53 3
-53 -2z"/>
</g>
</svg>
